<?xml version="1.0" encoding="UTF-8"?>
<svg xmlns="http://www.w3.org/2000/svg" xmlns:xlink="http://www.w3.org/1999/xlink" viewBox="0 0 50 50" width="50px" height="50px">
<g id="surface13184150">
<path style=" stroke:none;fill-rule:nonzero;fill:rgb(0%,0%,0%);fill-opacity:1;" d="M 10.5 50 C 4.699219 50 0 45.300781 0 39.5 L 0 10.5 C 0 4.699219 4.699219 0 10.5 0 L 39.5 0 C 45.300781 0 50 4.699219 50 10.5 L 50 39.5 C 50 45.300781 45.300781 50 39.5 50 Z M 10.5 50 "/>
<path style=" stroke:none;fill-rule:nonzero;fill:rgb(100%,100%,100%);fill-opacity:1;" d="M 20.066406 22.75 C 19.9375 22.75 19.832031 22.855469 19.832031 22.984375 L 19.832031 27.214844 C 19.832031 27.34375 19.9375 27.449219 20.066406 27.449219 L 23.121094 27.449219 C 23.6875 27.449219 24.53125 27.074219 24.53125 26.039062 C 24.53125 25.4375 24.242188 25.066406 23.898438 24.855469 C 23.996094 24.667969 24.058594 24.4375 24.058594 24.160156 C 24.058594 23.125 23.21875 22.75 22.652344 22.75 Z M 26.644531 22.75 C 26.515625 22.75 26.410156 22.855469 26.410156 22.984375 L 26.410156 27.214844 C 26.410156 27.34375 26.515625 27.449219 26.644531 27.449219 L 30.117188 27.449219 C 30.167969 27.449219 30.214844 27.417969 30.242188 27.371094 L 30.632812 26.574219 C 30.648438 26.546875 30.628906 26.507812 30.59375 26.507812 L 27.347656 26.507812 L 27.347656 25.804688 C 27.347656 25.675781 27.453125 25.570312 27.585938 25.570312 L 29.171875 25.570312 C 29.222656 25.570312 29.269531 25.539062 29.296875 25.492188 L 29.691406 24.699219 C 29.710938 24.667969 29.6875 24.628906 29.652344 24.628906 L 27.347656 24.628906 L 27.347656 23.691406 L 30.101562 23.691406 C 30.152344 23.691406 30.203125 23.660156 30.226562 23.613281 L 30.632812 22.816406 C 30.648438 22.785156 30.628906 22.75 30.59375 22.75 Z M 32.28125 22.75 C 32.152344 22.75 32.046875 22.855469 32.046875 22.984375 L 32.046875 27.308594 C 32.046875 27.382812 32.113281 27.449219 32.191406 27.449219 L 32.988281 27.449219 L 32.988281 26.507812 C 32.988281 26.25 33.199219 26.039062 33.457031 26.039062 L 34.859375 26.039062 L 35.660156 27.378906 C 35.683594 27.421875 35.730469 27.449219 35.78125 27.449219 L 36.699219 27.449219 C 36.734375 27.449219 36.757812 27.410156 36.738281 27.378906 L 35.855469 25.878906 C 36.410156 25.636719 36.746094 25.109375 36.746094 24.394531 C 36.746094 23.394531 36.101562 22.75 35.101562 22.75 Z M 13.394531 22.785156 C 13.316406 22.785156 13.253906 22.847656 13.253906 22.925781 L 13.253906 25.570312 C 13.253906 26.28125 13.746094 27.625 15.601562 27.625 C 17.460938 27.625 17.953125 26.28125 17.953125 25.570312 L 17.953125 22.785156 L 17.152344 22.785156 C 17.078125 22.785156 17.011719 22.847656 17.011719 22.925781 L 17.011719 25.5625 C 17.007812 25.75 16.925781 26.683594 15.601562 26.683594 C 14.28125 26.683594 14.195312 25.753906 14.191406 25.570312 L 14.191406 22.785156 Z M 20.769531 23.691406 L 22.644531 23.691406 C 22.863281 23.695312 23.121094 23.78125 23.121094 24.160156 C 23.121094 24.511719 22.898438 24.609375 22.699219 24.628906 C 22.671875 24.628906 22.660156 24.628906 22.644531 24.628906 L 20.769531 24.628906 Z M 32.988281 23.691406 L 35.101562 23.691406 C 35.734375 23.691406 35.808594 24.089844 35.808594 24.394531 C 35.808594 24.699219 35.734375 25.097656 35.101562 25.097656 L 32.988281 25.097656 Z M 21.007812 25.570312 L 23.113281 25.570312 C 23.332031 25.574219 23.589844 25.660156 23.589844 26.039062 C 23.589844 26.417969 23.332031 26.503906 23.113281 26.507812 L 20.769531 26.507812 L 20.769531 25.804688 C 20.769531 25.675781 20.875 25.570312 21.007812 25.570312 Z M 21.007812 25.570312 "/>
</g>
</svg>
